<svg xmlns="http://www.w3.org/2000/svg" width="197" height="312" viewBox="0 0 197 312">
<g>
<path d="M 98.63 312.00 L 0.00 312.00 L 48.75 311.98 L 97.50 311.96 L 92.50 308.86 C75.19,298.10 52.66,277.52 40.79,261.60 C27.98,244.42 18.70,224.90 13.19,203.50 C7.15,180.03 6.69,175.90 6.59,145.03 L 6.50 116.55 L 21.50 111.96 C29.75,109.43 42.01,105.63 48.74,103.51 L 60.98 99.65 L 65.01 92.87 C67.22,89.15 69.48,85.82 70.03,85.48 C71.88,84.34 77.68,87.01 78.83,89.53 C80.32,92.80 82.84,92.65 86.78,89.06 L 90.00 86.11 L 90.00 38.08 L 85.36 32.38 C81.48,27.62 80.87,26.31 81.61,24.38 C82.79,21.30 96.23,4.12 97.50,4.05 C98.05,4.02 99.85,5.66 101.50,7.70 C112.58,21.36 115.00,24.60 115.00,25.80 C115.00,26.55 112.75,29.74 110.00,32.91 L 105.00 38.66 L 105.00 85.20 L 108.40 88.60 C112.33,92.53 117.00,93.31 117.00,90.03 C117.00,87.71 122.26,84.62 124.80,85.45 C125.73,85.75 128.38,89.05 130.68,92.78 C135.41,100.47 132.15,98.93 164.00,108.47 C172.52,111.03 181.75,113.88 184.50,114.82 L 189.50 116.52 L 189.82 137.51 C190.36,173.27 186.67,196.10 175.82,224.18 C163.39,256.33 139.53,284.57 105.54,307.36 L 98.63 312.00 ZM 93.23 287.75 C95.42,292.29 97.61,296.00 98.09,296.00 C99.23,296.00 102.74,289.01 109.25,273.79 L 114.50 261.50 L 114.50 144.50 L 117.22 139.00 C118.72,135.98 119.62,133.39 119.22,133.25 C116.26,132.21 111.76,128.56 110.77,126.40 C109.82,124.31 109.90,122.94 111.17,119.40 C113.31,113.44 111.40,113.55 106.63,119.66 C103.19,124.08 103.00,124.72 103.00,131.85 C103.00,137.40 103.54,140.48 105.06,143.63 L 107.13 147.89 L 99.50 163.50 L 99.30 211.74 C99.11,258.77 98.22,272.44 96.43,255.91 C95.99,251.84 95.78,248.05 95.98,247.50 C96.17,246.95 96.23,228.17 96.13,205.78 C95.92,162.30 95.97,162.79 90.59,152.17 L 87.96 146.98 L 90.23 143.91 C92.21,141.23 92.48,139.75 92.34,132.36 C92.21,125.02 91.83,123.34 89.55,119.89 C85.50,113.78 81.39,112.98 84.45,118.90 C85.40,120.73 85.79,122.99 85.42,124.48 C84.83,126.82 79.54,132.32 77.10,133.13 C76.40,133.37 76.82,135.14 78.25,138.00 C80.36,142.22 80.52,143.99 80.82,166.00 C81.00,178.93 80.86,192.66 80.51,196.52 L 79.87 203.54 L 75.82 203.15 C70.91,202.69 70.04,203.76 70.02,210.29 C70.00,214.59 69.54,215.55 65.50,219.77 L 61.00 224.47 L 61.00 233.50 C61.00,241.49 60.71,242.96 58.50,246.21 C55.55,250.56 55.24,253.29 57.75,252.81 C58.98,252.57 59.51,251.51 59.53,249.25 C59.55,247.48 60.12,245.48 60.78,244.82 C61.56,244.04 62.00,240.31 62.00,234.52 L 62.00 225.44 L 67.00 220.20 C71.63,215.34 72.00,214.58 72.00,209.98 L 72.00 205.00 L 80.00 205.00 L 79.99 231.25 L 79.98 257.50 L 84.62 268.50 C87.17,274.55 91.05,283.21 93.23,287.75 ZM 97.75 124.09 C97.61,124.31 98.62,123.15 100.00,121.50 C106.07,114.22 109.13,111.25 112.34,109.51 L 115.79 107.66 L 121.64 110.53 C124.86,112.11 128.18,113.46 129.00,113.54 C129.82,113.62 132.41,114.02 134.73,114.43 L 138.97 115.17 L 137.37 111.34 C134.65,104.81 125.69,89.00 124.72,89.00 C124.22,89.00 124.82,90.69 126.05,92.75 C128.57,96.95 129.93,99.52 132.97,105.83 L 135.05 110.16 L 130.52 106.91 C128.03,105.12 126.09,103.17 126.21,102.58 C126.32,101.98 125.86,100.49 125.17,99.25 C124.20,97.48 124.19,97.00 125.16,97.00 C125.85,97.00 125.61,96.44 124.62,95.71 C123.65,95.00 122.94,93.99 123.05,93.46 C123.60,90.68 122.83,89.00 121.00,89.00 C119.66,89.00 119.00,89.67 119.00,91.02 C119.00,93.45 115.51,95.01 111.70,94.28 C110.09,93.97 106.73,91.32 103.37,87.69 L 97.75 81.62 L 93.84 85.81 C91.69,88.11 89.51,90.00 89.00,90.00 C88.49,90.00 87.62,90.84 87.07,91.88 C85.75,94.34 81.92,95.00 78.17,93.43 C76.52,92.73 74.84,92.47 74.44,92.83 C74.04,93.20 74.02,92.26 74.38,90.75 C74.96,88.32 74.75,88.00 72.58,88.00 C70.50,88.00 69.28,89.55 64.60,98.09 C58.53,109.16 56.26,114.59 57.28,115.62 C57.65,115.98 58.56,115.78 59.31,115.16 C61.22,113.57 69.21,110.85 68.48,112.03 C67.65,113.38 68.03,113.28 72.50,111.00 C79.71,107.32 81.75,108.14 93.72,119.59 C96.07,121.83 97.88,123.86 97.75,124.09 ZM 95.00 308.50 C95.68,309.33 96.66,310.00 97.17,310.00 C99.73,310.00 118.35,296.20 128.72,286.63 C131.04,284.48 133.81,282.12 134.88,281.37 C136.67,280.12 150.73,264.02 153.98,259.50 C154.77,258.40 153.69,259.08 151.58,261.00 C148.41,263.89 147.96,264.08 148.99,262.10 C150.06,260.02 150.02,259.78 148.67,260.30 C147.53,260.73 147.27,260.46 147.72,259.29 C148.13,258.21 147.95,257.91 147.17,258.39 C145.40,259.49 145.76,258.14 148.15,254.79 L 150.30 251.77 L 148.12 252.93 C146.92,253.58 146.19,254.51 146.50,255.00 C146.81,255.49 146.13,256.39 145.00,257.00 C143.87,257.61 143.17,258.46 143.44,258.91 C143.72,259.35 142.15,261.16 139.95,262.92 C137.76,264.68 136.18,266.49 136.46,266.93 C136.73,267.37 136.06,268.54 134.98,269.52 C133.89,270.51 133.00,271.98 133.00,272.80 C133.00,273.62 131.32,276.37 129.28,278.90 C127.23,281.43 126.34,282.87 127.30,282.11 C128.26,281.34 129.28,280.94 129.56,281.22 C129.83,281.50 128.92,282.48 127.52,283.39 C125.74,284.56 125.06,284.68 125.24,283.78 C125.38,283.08 124.84,282.65 124.03,282.82 C122.93,283.07 123.03,282.62 124.43,281.07 C126.07,279.26 126.10,279.00 124.68,279.00 C123.79,279.00 122.06,280.35 120.84,282.00 C119.62,283.65 118.04,285.00 117.33,285.00 C116.63,285.00 115.31,286.12 114.41,287.50 C113.51,288.88 112.36,290.00 111.86,290.00 C110.67,290.00 101.00,297.22 101.00,298.11 C101.00,299.26 103.90,299.97 105.75,299.28 C107.29,298.70 107.33,298.83 106.11,300.34 C104.87,301.85 104.93,301.97 106.61,301.41 C107.84,301.00 107.45,301.68 105.50,303.35 C103.85,304.77 101.99,305.76 101.37,305.55 C100.75,305.33 99.67,305.68 98.98,306.33 C97.99,307.24 97.88,307.20 98.47,306.15 C99.09,305.07 98.83,305.02 97.18,305.90 C95.66,306.72 94.93,306.70 94.41,305.85 C93.93,305.08 94.13,304.96 95.00,305.50 C95.85,306.02 96.07,305.92 95.62,305.20 C95.24,304.59 94.39,304.30 93.72,304.55 C92.91,304.87 92.50,303.88 92.50,301.61 C92.50,298.55 92.71,298.29 94.50,299.15 C96.71,300.20 89.46,293.35 86.88,291.95 C85.42,291.15 85.39,291.43 86.57,294.78 C87.29,296.83 88.39,298.38 89.02,298.23 C89.64,298.07 89.85,298.44 89.48,299.03 C89.03,299.77 88.06,299.61 86.44,298.55 C84.37,297.19 84.13,297.19 84.64,298.50 C85.55,300.88 84.40,300.29 79.79,296.01 C77.43,293.82 75.97,292.02 76.55,292.01 C77.13,292.01 78.23,292.56 79.00,293.25 C80.19,294.31 80.21,294.24 79.12,292.79 C77.64,290.84 78.40,289.00 80.68,289.00 C81.94,289.00 82.01,288.72 81.03,287.53 C80.36,286.72 79.47,286.16 79.06,286.28 C78.64,286.40 76.93,285.04 75.25,283.25 C72.00,279.79 68.32,278.49 71.39,281.88 C72.96,283.61 72.97,283.89 71.48,285.38 C69.54,287.32 68.79,287.39 67.20,285.80 C66.51,285.11 66.00,285.03 66.00,285.61 C66.00,286.17 69.86,289.75 74.59,293.56 C79.31,297.38 83.71,300.95 84.36,301.50 C87.23,303.91 92.00,307.00 92.84,307.00 C93.34,307.00 94.32,307.67 95.00,308.50 ZM 162.50 228.00 C162.84,228.55 163.29,229.00 163.50,229.00 C164.39,229.00 174.01,197.67 176.09,188.00 C178.05,178.94 178.41,173.77 178.77,150.25 C179.15,125.35 179.05,123.00 177.53,123.00 C176.26,123.00 176.04,122.47 176.59,120.75 C176.99,119.51 177.32,117.92 177.32,117.21 C177.33,116.42 177.96,116.17 178.92,116.56 C179.79,116.91 181.74,117.65 183.25,118.20 C185.18,118.90 186.00,119.89 186.00,121.54 C186.00,122.83 186.45,124.16 187.00,124.50 C187.59,124.86 188.00,123.76 188.00,121.81 L 188.00 118.50 L 177.25 114.85 C171.34,112.84 163.80,110.42 160.50,109.48 C157.20,108.55 150.68,106.52 146.00,104.99 C141.32,103.45 137.28,102.41 137.01,102.67 C136.03,103.62 141.54,106.85 144.03,106.78 C145.44,106.74 148.99,107.50 151.90,108.47 L 157.20 110.23 L 154.35 112.11 C152.78,113.14 151.95,114.04 152.50,114.11 C153.05,114.18 152.15,114.55 150.50,114.94 C147.80,115.58 148.39,115.92 156.50,118.39 C161.45,119.90 168.37,122.06 171.88,123.20 L 178.27 125.25 L 177.72 150.38 C177.04,181.31 174.57,196.21 166.79,216.40 C165.07,220.85 163.67,225.05 163.67,225.74 C163.67,226.43 163.27,227.00 162.77,227.00 C162.28,227.00 162.16,227.45 162.50,228.00 ZM 94.03 38.53 C96.24,41.20 99.78,39.78 105.62,33.88 C108.82,30.64 110.93,28.00 110.30,28.00 C109.68,28.00 107.29,30.14 105.00,32.75 C102.70,35.36 100.08,37.90 99.16,38.39 C98.25,38.88 98.98,37.71 100.79,35.79 C102.61,33.88 104.46,31.00 104.92,29.41 C105.64,26.85 105.25,25.98 101.62,22.11 C99.35,19.69 98.06,18.03 98.75,18.41 C101.37,19.89 102.01,17.83 99.87,14.82 L 97.71 11.78 L 96.14 14.37 C94.48,17.09 91.74,18.83 92.59,16.62 C92.86,15.91 92.41,15.33 91.59,15.33 C90.76,15.33 90.32,15.71 90.60,16.17 C90.89,16.62 90.39,17.00 89.50,17.00 C88.61,17.00 88.16,17.45 88.50,18.00 C88.84,18.55 88.49,19.00 87.73,19.00 C85.63,19.00 83.35,23.75 84.78,25.18 C85.63,26.03 86.31,25.99 87.46,25.04 C88.31,24.33 89.00,24.11 89.00,24.55 C89.00,24.99 90.12,24.29 91.50,23.00 C92.88,21.71 94.00,21.18 94.00,21.83 C94.00,22.47 93.66,23.00 93.24,23.00 C92.83,23.00 91.85,24.43 91.08,26.18 C89.84,28.99 89.87,29.70 91.32,32.23 C92.22,33.80 92.46,34.79 91.85,34.41 C91.18,33.99 90.94,34.27 91.25,35.11 C91.52,35.87 92.37,36.35 93.12,36.17 C93.88,35.98 94.17,36.17 93.76,36.57 C93.35,36.98 93.47,37.86 94.03,38.53 ZM 109.23 104.62 C109.07,106.66 107.32,109.12 103.25,113.03 L 97.50 118.56 L 91.23 112.53 C86.92,108.39 84.96,105.75 84.98,104.11 C85.00,101.79 84.83,101.73 79.17,102.32 C75.96,102.66 72.47,103.26 71.42,103.65 C69.74,104.28 69.67,104.17 70.83,102.74 C71.56,101.84 72.39,99.62 72.67,97.80 C73.33,93.57 73.72,93.24 75.37,95.49 C77.35,98.19 84.38,97.74 87.29,94.72 C88.51,93.46 89.16,92.87 88.75,93.42 C88.34,93.96 88.00,97.41 88.00,101.08 C88.00,107.61 88.09,107.85 92.00,111.38 C94.20,113.37 96.67,115.00 97.49,115.00 C98.30,115.00 100.97,113.08 103.42,110.73 C107.67,106.66 107.85,106.26 107.33,101.98 C106.90,98.36 105.94,96.66 102.34,93.11 L 97.90 88.73 L 95.20 91.16 C89.84,96.00 88.59,96.30 92.96,91.70 L 97.42 87.00 L 101.12 90.61 C103.15,92.60 105.27,93.95 105.82,93.61 C106.38,93.27 107.39,94.25 108.07,95.79 C108.46,96.68 108.71,97.29 109.15,97.70 C110.14,98.61 112.08,98.50 118.67,98.13 C118.86,98.12 119.05,98.11 119.25,98.10 C120.21,98.04 121.04,97.21 121.10,96.25 C121.17,95.08 121.47,95.33 122.00,97.00 C123.83,102.72 123.60,102.93 116.23,102.32 L 109.46 101.75 ZM 95.24 157.73 C97.01,162.30 99.00,163.94 99.00,160.83 C99.00,160.26 100.38,156.90 102.06,153.38 L 105.12 146.97 L 102.93 143.91 C101.73,142.22 100.75,139.76 100.75,138.44 C100.75,137.12 100.47,136.21 100.12,136.42 C99.78,136.63 99.36,134.72 99.19,132.18 C98.85,127.00 97.25,125.28 95.00,127.66 C93.94,128.77 93.84,129.37 94.66,129.67 C95.45,129.97 95.56,131.04 95.02,132.92 C94.58,134.47 94.58,136.31 95.02,137.03 C96.03,138.67 95.25,140.89 92.64,143.78 C90.79,145.84 90.72,146.39 91.90,149.28 C92.62,151.05 94.13,154.85 95.24,157.73 ZM 54.60 180.91 L 56.43 184.00 L 67.72 184.00 C74.57,184.00 79.00,183.61 79.00,183.00 C79.00,182.40 74.86,182.00 68.57,182.00 C56.36,182.00 54.54,181.09 56.07,175.76 C57.95,169.19 57.37,167.68 50.71,161.80 L 44.42 156.24 L 34.96 155.87 C27.05,155.56 25.50,155.75 25.50,157.00 C25.50,158.25 27.02,158.44 34.57,158.16 L 43.64 157.81 L 49.29 162.66 C54.58,167.20 54.94,167.78 54.97,172.00 L 55.00 176.50 L 43.75 175.89 C32.05,175.25 30.64,175.41 31.28,177.34 C31.55,178.14 34.87,178.39 42.22,178.15 L 52.78 177.82 ZM 49.59 245.37 C50.57,247.94 53.50,246.91 53.52,243.98 C53.53,242.62 54.09,240.52 54.77,239.32 C55.44,238.11 56.00,234.05 56.00,230.28 L 56.00 223.42 L 61.00 218.50 C65.83,213.74 66.00,213.38 66.00,207.91 C66.00,204.54 66.52,201.82 67.28,201.19 C67.98,200.60 70.79,199.99 73.52,199.81 C77.30,199.57 78.56,199.08 78.81,197.75 C79.06,196.46 78.49,196.00 76.63,196.00 C75.25,196.00 73.84,196.45 73.50,197.00 C73.16,197.55 71.36,198.00 69.49,198.00 C65.19,198.00 59.84,203.21 60.33,206.92 C60.55,208.61 59.72,210.17 57.57,212.09 C55.88,213.60 54.88,215.21 55.33,215.67 C56.53,216.87 62.00,210.38 62.02,207.73 C62.02,206.51 62.47,204.82 63.00,204.00 C63.69,202.93 63.97,204.07 63.98,207.96 C64.00,213.05 63.71,213.72 59.75,217.75 C55.56,222.02 55.50,222.20 54.93,230.69 C54.41,238.53 54.12,239.49 51.64,241.47 C49.77,242.96 49.13,244.18 49.59,245.37 ZM 62.67 177.33 C63.73,178.40 77.82,178.10 78.50,177.00 C78.89,176.36 76.16,176.00 71.01,176.00 L 62.89 176.00 L 63.11 169.34 C63.11,169.20 63.12,169.07 63.12,168.94 C63.22,166.04 63.27,164.41 62.71,163.04 C61.97,161.21 60.14,159.82 55.89,156.48 C54.08,155.06 53.15,153.16 52.73,150.02 C52.40,147.57 51.38,145.02 50.46,144.34 C49.53,143.67 45.23,142.81 40.89,142.43 C36.55,142.05 33.00,141.35 33.00,140.87 C33.00,139.34 29.96,139.94 29.32,141.60 C28.56,143.59 30.85,145.14 32.95,144.06 C34.38,143.32 46.87,144.36 49.75,145.46 C50.49,145.74 51.00,147.74 51.00,150.35 C51.00,154.51 51.31,154.99 56.50,159.00 L 62.00 163.24 L 62.00 169.95 C62.00,173.65 62.30,176.97 62.67,177.33 ZM 16.68 162.00 L 17.50 176.50 L 17.77 150.78 C18.01,127.56 18.20,124.96 19.77,124.14 C20.72,123.63 26.47,121.84 32.55,120.16 C44.89,116.74 49.49,115.15 48.85,114.51 C48.22,113.89 34.88,117.43 25.00,120.83 L 16.50 123.76 L 16.18 135.63 C16.00,142.16 16.23,154.02 16.68,162.00 ZM 135.38 251.55 C136.19,253.65 139.00,253.33 139.00,251.13 C139.00,250.11 138.02,248.02 136.82,246.50 C134.88,244.03 134.67,242.69 134.89,234.06 L 135.12 224.39 L 130.11 219.70 C125.35,215.25 125.09,214.73 124.80,209.26 L 124.50 203.50 L 120.25 203.19 C116.82,202.94 116.00,203.21 116.00,204.55 C116.00,205.91 116.64,206.10 119.37,205.59 L 122.74 204.96 L 123.23 210.05 C123.66,214.47 124.34,215.78 128.36,219.86 L 133.00 224.57 L 133.00 233.33 C133.00,239.27 133.50,243.06 134.54,245.08 C135.39,246.72 135.80,248.52 135.45,249.08 C135.11,249.64 135.07,250.75 135.38,251.55 ZM 67.67 171.33 C68.74,172.40 79.00,172.10 79.00,171.00 C79.00,170.45 76.75,170.00 74.00,170.00 L 69.00 170.00 L 69.00 164.56 C69.00,159.26 68.87,159.01 64.00,154.90 C59.07,150.75 59.00,150.60 59.00,144.97 C59.00,141.36 58.50,138.83 57.64,138.12 C56.87,137.47 56.49,135.91 56.76,134.49 C57.14,132.50 56.83,132.00 55.20,132.00 C52.20,132.00 51.98,134.12 54.65,137.33 C56.47,139.52 57.00,141.35 57.00,145.52 C57.00,150.72 57.16,151.02 62.00,155.19 C66.89,159.40 67.00,159.62 67.00,165.08 C67.00,168.15 67.30,170.97 67.67,171.33 ZM 116.00 177.04 C116.00,177.70 119.02,177.97 124.25,177.79 L 132.50 177.50 L 132.79 170.25 L 133.09 163.00 L 138.54 158.88 C143.68,155.00 144.00,154.51 144.00,150.42 C144.00,146.22 144.13,146.04 147.87,145.03 C150.00,144.46 154.99,143.89 158.95,143.78 C166.19,143.56 168.14,142.74 166.16,140.76 C165.42,140.02 164.68,140.01 163.79,140.71 C163.08,141.27 159.51,142.02 155.85,142.38 C152.19,142.74 147.80,143.52 146.10,144.12 C143.28,145.10 143.00,145.58 143.00,149.54 C143.00,153.62 142.66,154.15 137.50,158.18 L 132.00 162.47 L 132.00 176.00 L 124.00 176.00 C119.13,176.00 116.00,176.41 116.00,177.04 ZM 145.70 234.36 C146.05,234.71 146.93,235.00 147.67,235.00 C149.21,235.00 149.48,231.41 148.00,230.50 C147.45,230.16 147.00,227.98 147.00,225.66 C147.00,221.83 146.45,220.89 141.05,215.55 C137.77,212.31 135.30,209.32 135.55,208.91 C136.22,207.84 134.41,203.90 131.96,201.04 C130.43,199.27 128.41,198.41 124.67,197.94 C121.83,197.59 118.71,196.96 117.75,196.54 C116.40,195.96 116.00,196.26 116.00,197.89 C116.00,199.82 116.56,200.00 122.46,200.00 C128.22,200.00 129.20,200.30 131.46,202.74 C133.05,204.45 134.00,206.64 134.00,208.59 C134.00,211.15 135.08,212.64 140.12,217.03 L 146.25 222.35 L 145.65 228.04 C145.33,231.17 145.35,234.01 145.70,234.36 ZM 8.18 124.36 L 8.37 130.50 L 8.74 125.25 C8.94,122.36 9.20,120.00 9.31,120.00 C9.42,120.00 10.97,120.42 12.76,120.93 C14.76,121.50 16.00,121.50 16.00,120.93 C16.00,120.42 15.35,120.00 14.56,120.00 C13.77,120.00 12.80,119.48 12.40,118.84 C11.91,118.05 12.37,117.86 13.85,118.25 C15.03,118.56 15.76,118.43 15.47,117.95 C15.18,117.48 16.87,116.64 19.22,116.08 C21.57,115.53 29.12,113.18 36.00,110.86 C42.88,108.53 50.72,106.13 53.44,105.51 C56.15,104.89 58.54,103.87 58.75,103.25 C59.10,102.20 53.89,103.57 39.50,108.34 C36.75,109.25 28.54,111.84 21.25,114.10 L 8.00 118.21 ZM 116.22 183.44 C115.92,183.75 120.66,184.00 126.77,184.00 L 137.86 184.00 L 140.08 180.89 L 142.29 177.78 L 152.65 178.17 C161.69,178.50 163.00,178.35 163.00,176.93 C163.00,175.51 161.72,175.36 152.75,175.73 C142.98,176.14 142.38,176.29 139.99,179.00 C137.61,181.71 136.95,181.88 127.13,182.37 C121.44,182.65 116.53,183.14 116.22,183.44 ZM 116.00 171.05 C116.00,171.70 118.21,171.98 121.75,171.80 L 127.50 171.50 L 127.80 165.80 C128.08,160.37 128.34,159.88 133.05,155.65 C137.85,151.33 138.00,151.03 138.00,145.67 C138.00,141.17 138.48,139.58 140.64,137.02 C142.52,134.78 142.97,133.57 142.21,132.81 C140.68,131.28 137.66,132.67 138.38,134.56 C138.71,135.41 138.28,137.18 137.42,138.49 C136.27,140.23 136.04,142.07 136.53,145.38 C137.19,149.75 137.07,150.01 132.86,153.93 C130.46,156.16 128.16,157.98 127.75,157.99 C127.34,157.99 127.00,160.70 127.00,164.00 L 127.00 170.00 L 121.50 170.00 C118.33,170.00 116.00,170.44 116.00,171.05 ZM 138.96 171.69 L 139.44 176.50 L 139.97 171.87 C140.43,167.86 141.18,166.62 145.55,162.70 C150.56,158.21 150.67,158.17 158.55,157.91 C162.92,157.77 167.16,157.85 167.98,158.08 C168.93,158.35 169.58,157.65 169.81,156.11 C170.12,154.10 169.88,153.85 168.34,154.55 C167.33,155.00 162.64,155.63 157.92,155.94 L 149.35 156.50 L 143.91 161.69 C138.56,166.81 138.48,166.96 138.96,171.69 ZM 132.25 189.25 C141.19,189.42 149.08,189.65 149.78,189.78 C151.54,190.08 152.53,187.13 151.13,185.73 C150.29,184.89 149.69,184.91 148.80,185.80 C147.97,186.63 142.76,187.00 131.80,187.00 C110.43,187.00 110.80,188.85 132.25,189.25 ZM 160.51 248.58 L 158.76 251.50 L 160.86 249.00 C164.71,244.41 173.27,227.10 171.00,228.50 C170.45,228.84 170.00,229.66 170.00,230.33 C170.00,230.99 168.84,233.24 167.42,235.33 C165.20,238.61 164.63,238.94 163.23,237.81 C161.86,236.70 161.75,236.73 162.50,238.00 C163.26,239.29 163.15,239.31 161.71,238.14 C160.47,237.14 160.29,236.32 161.02,234.96 C162.30,232.58 162.26,231.00 160.94,231.00 C160.36,231.00 160.16,231.45 160.50,232.00 C160.84,232.55 160.61,233.00 160.00,233.00 C159.39,233.00 159.16,233.45 159.50,234.00 C159.84,234.55 159.61,235.00 159.00,235.00 C158.39,235.00 158.16,235.45 158.50,236.00 C158.84,236.55 158.61,237.00 158.00,237.00 C157.39,237.00 157.16,237.45 157.50,238.00 C157.84,238.55 157.61,239.00 157.00,239.00 C156.39,239.00 156.16,239.46 156.51,240.02 C156.86,240.58 157.67,240.71 158.32,240.32 C158.99,239.92 158.91,240.34 158.13,241.31 C157.37,242.24 157.17,243.00 157.69,243.00 C158.20,243.00 159.44,243.60 160.44,244.33 C162.19,245.61 162.19,245.79 160.51,248.58 ZM 42.72 189.39 C43.12,189.79 44.36,189.87 45.47,189.57 C46.59,189.27 54.59,189.02 63.25,189.01 C73.07,189.01 79.00,188.62 79.00,188.00 C79.00,187.38 73.07,187.00 63.20,187.00 C53.67,187.00 46.99,186.59 46.37,185.97 C45.80,185.40 44.58,185.22 43.67,185.57 C41.94,186.24 41.47,188.13 42.72,189.39 ZM 65.05 106.95 C63.32,108.68 60.00,110.33 60.00,109.46 C60.00,108.11 69.29,92.05 70.93,90.57 C72.76,88.90 72.80,88.96 72.04,92.31 C71.61,94.21 70.93,96.30 70.53,96.96 C70.12,97.61 69.69,99.55 69.57,101.26 C69.46,102.98 68.77,104.58 68.05,104.82 C67.34,105.05 65.98,106.02 65.05,106.95 ZM 141.87 246.75 C141.94,246.89 142.69,247.00 143.53,247.00 C146.31,247.00 146.37,243.99 143.63,241.14 C141.27,238.67 141.00,237.63 141.00,230.91 L 141.00 223.42 L 136.00 218.50 C131.40,213.97 131.00,213.20 131.00,208.85 C131.00,206.25 130.55,203.84 130.00,203.50 C129.38,203.12 129.00,204.86 129.00,208.07 C129.00,212.98 129.26,213.50 134.07,218.16 L 139.13 223.07 L 140.07 232.28 C140.98,241.23 141.61,246.24 141.87,246.75 ZM 40.52 209.04 C41.64,210.84 43.37,209.53 44.22,206.23 C45.28,202.13 46.32,201.60 52.80,201.90 C57.55,202.12 58.59,201.81 61.11,199.39 C62.70,197.87 64.00,196.18 64.00,195.63 C64.00,195.08 62.74,195.84 61.20,197.31 C58.78,199.63 57.55,200.00 52.28,200.00 C46.35,200.00 46.07,200.12 43.01,203.98 C41.28,206.17 40.16,208.45 40.52,209.04 ZM 106.67 28.01 C106.03,28.70 106.74,28.47 108.25,27.51 C109.76,26.56 111.00,25.21 111.00,24.52 C111.00,23.02 107.70,18.63 100.44,10.50 C96.62,6.21 98.62,9.63 103.14,15.11 C105.24,17.64 106.67,19.99 106.33,20.33 C105.99,20.67 106.33,21.75 107.08,22.73 C107.83,23.70 107.22,23.41 105.72,22.08 C102.35,19.07 102.13,20.58 105.42,24.14 C107.30,26.16 107.59,27.03 106.67,28.01 ZM 119.58 292.87 C119.23,293.44 117.60,294.86 115.97,296.02 C113.38,297.86 112.91,297.94 112.39,296.58 C112.06,295.72 111.28,295.32 110.65,295.70 C110.02,296.08 110.18,295.55 111.00,294.53 C112.42,292.77 112.36,292.74 110.00,293.90 L 107.50 295.13 L 110.00 293.04 C111.38,291.89 113.79,289.99 115.38,288.81 L 118.25 286.68 L 116.51 289.34 C115.55,290.80 114.93,292.03 115.13,292.08 C118.79,292.84 119.12,292.75 118.52,291.17 C118.03,289.90 118.16,289.78 119.05,290.66 C119.70,291.30 119.94,292.29 119.58,292.87 ZM 46.36 233.49 C46.68,234.32 47.65,235.00 48.52,235.00 C49.83,235.00 50.07,233.85 49.90,228.50 C49.73,223.35 50.08,221.55 51.59,219.79 L 53.50 217.57 L 51.00 219.15 C49.07,220.37 48.43,221.72 48.18,225.09 C48.01,227.50 47.39,230.03 46.82,230.72 C46.25,231.41 46.04,232.66 46.36,233.49 ZM 31.09 226.57 C32.79,230.66 34.59,234.00 35.09,234.00 L 35.15 234.00 C35.43,234.00 35.64,234.00 35.75,233.89 C36.13,233.54 35.40,232.00 32.23,225.30 L 32.03 224.88 C27.31,214.92 26.70,216.02 31.09,226.57 ZM 96.63 65.88 C97.40,69.77 98.65,69.10 99.19,64.51 C99.46,62.16 99.19,61.00 98.36,61.00 C96.47,61.00 95.95,62.48 96.63,65.88 ZM 40.66 245.51 C42.04,247.98 43.61,250.00 44.14,250.00 C44.68,250.00 43.87,247.78 42.35,245.07 C40.82,242.36 39.26,240.34 38.86,240.58 C38.47,240.83 39.28,243.04 40.66,245.51 ZM 96.88 76.31 C96.95,76.75 97.48,76.82 98.07,76.46 C98.65,76.10 98.91,75.57 98.63,75.30 C98.35,75.02 98.55,73.68 99.07,72.32 C99.86,70.24 99.73,69.91 98.25,70.19 C96.68,70.50 96.29,72.27 96.88,76.31 ZM 132.36 282.20 C132.13,282.59 130.49,283.90 128.72,285.12 L 125.50 287.34 L 128.13 284.42 C129.57,282.81 130.52,280.86 130.24,280.08 C129.79,278.85 129.93,278.85 131.25,280.08 C132.10,280.86 132.60,281.82 132.36,282.20 ZM 97.00 55.58 C97.00,57.69 97.44,59.02 98.07,58.81 C98.67,58.61 99.12,58.12 99.07,57.72 C99.03,57.33 99.00,55.88 99.00,54.50 C99.00,53.12 98.55,52.00 98.00,52.00 C97.45,52.00 97.00,53.61 97.00,55.58 ZM 91.49 303.01 C91.16,303.56 90.57,303.99 90.19,303.98 C89.01,303.94 84.44,300.05 85.55,300.02 C86.13,300.01 87.09,300.49 87.69,301.09 C88.47,301.87 88.96,301.87 89.45,301.09 C89.82,300.49 90.63,300.00 91.25,300.00 C91.87,300.00 91.51,300.71 90.44,301.58 C88.71,302.99 88.69,303.10 90.30,302.59 C91.36,302.26 91.85,302.43 91.49,303.01 ZM 98.55 146.27 C98.89,147.16 98.73,148.65 98.20,149.60 C97.33,151.15 97.17,151.10 96.52,149.06 C95.66,146.37 97.58,143.74 98.55,146.27 ZM 86.90 30.75 C88.13,32.54 89.56,34.00 90.07,34.00 C91.50,34.00 91.25,33.60 87.83,30.44 L 84.66 27.50 ZM 96.82 46.50 L 97.47 49.50 L 97.81 46.66 C98.00,45.10 97.89,43.56 97.58,43.24 C96.49,42.16 96.18,43.50 96.82,46.50 ZM 101.00 118.50 C99.13,120.43 97.38,122.00 97.11,122.00 C96.83,122.00 98.13,120.43 100.00,118.50 C101.87,116.57 103.62,115.00 103.89,115.00 C104.17,115.00 102.87,116.57 101.00,118.50 ZM 105.93 297.58 C104.61,299.17 103.00,299.47 103.00,298.12 C103.00,297.63 103.93,296.99 105.06,296.70 C106.75,296.25 106.90,296.41 105.93,297.58 ZM 133.67 277.60 C133.67,278.37 133.63,278.99 133.58,278.98 C133.54,278.98 132.90,278.59 132.17,278.12 C131.07,277.43 131.08,277.18 132.25,276.73 C133.06,276.42 133.67,276.79 133.67,277.60 ZM 163.92 242.00 C162.46,245.06 162.00,245.63 162.00,244.36 C162.00,243.82 162.70,242.51 163.56,241.44 C165.02,239.61 165.04,239.64 163.92,242.00 ZM 162.00 177.00 C162.00,177.55 161.55,178.00 161.00,178.00 C160.45,178.00 160.00,177.55 160.00,177.00 C160.00,176.45 160.45,176.00 161.00,176.00 C161.55,176.00 162.00,176.45 162.00,177.00 ZM 97.00 38.56 C97.00,38.80 96.55,39.00 96.00,39.00 C95.45,39.00 95.00,38.52 95.00,37.94 C95.00,37.36 95.45,37.16 96.00,37.50 C96.55,37.84 97.00,38.32 97.00,38.56 Z" fill="rgb(16,40,64)"/>
<path d="M 97.75 124.09 C97.88,123.86 96.07,121.83 93.72,119.59 C81.75,108.14 79.71,107.32 72.50,111.00 C68.03,113.28 67.65,113.38 68.48,112.03 C69.21,110.85 61.22,113.57 59.31,115.16 C58.56,115.78 57.65,115.98 57.28,115.62 C56.26,114.59 58.53,109.16 64.60,98.09 C69.28,89.55 70.50,88.00 72.58,88.00 C74.75,88.00 74.96,88.32 74.38,90.75 C74.02,92.26 74.04,93.20 74.44,92.83 C74.84,92.47 76.52,92.73 78.17,93.43 C81.92,95.00 85.75,94.34 87.07,91.88 C87.62,90.84 88.49,90.00 89.00,90.00 C89.51,90.00 91.69,88.11 93.84,85.81 L 97.75 81.62 L 103.37 87.69 C106.73,91.32 110.09,93.97 111.70,94.28 C115.51,95.01 119.00,93.45 119.00,91.02 C119.00,89.67 119.66,89.00 121.00,89.00 C122.83,89.00 123.60,90.68 123.05,93.46 C122.94,93.99 123.65,95.00 124.62,95.71 C125.61,96.44 125.85,97.00 125.16,97.00 C124.19,97.00 124.20,97.48 125.17,99.25 C125.86,100.49 126.32,101.98 126.21,102.58 C126.09,103.17 128.03,105.12 130.52,106.91 L 135.05 110.16 L 132.97 105.83 C129.93,99.52 128.57,96.95 126.05,92.75 C124.82,90.69 124.22,89.00 124.72,89.00 C125.69,89.00 134.65,104.81 137.37,111.34 L 138.97 115.17 L 134.73 114.43 C132.41,114.02 129.82,113.62 129.00,113.54 C128.18,113.46 124.86,112.11 121.64,110.53 L 115.79 107.66 L 112.34 109.51 C109.13,111.25 106.07,114.22 100.00,121.50 C98.62,123.15 97.61,124.31 97.75,124.09 ZM 95.00 308.50 C94.32,307.67 93.34,307.00 92.84,307.00 C92.00,307.00 87.23,303.91 84.36,301.50 C83.71,300.95 79.31,297.38 74.59,293.56 C69.86,289.75 66.00,286.17 66.00,285.61 C66.00,285.03 66.51,285.11 67.20,285.80 C68.79,287.39 69.54,287.32 71.48,285.38 C72.97,283.89 72.96,283.61 71.39,281.88 C68.32,278.49 72.00,279.79 75.25,283.25 C76.93,285.04 78.64,286.40 79.06,286.28 C79.47,286.16 80.36,286.72 81.03,287.53 C82.01,288.72 81.94,289.00 80.68,289.00 C78.40,289.00 77.64,290.84 79.12,292.79 C80.21,294.24 80.19,294.31 79.00,293.25 C78.23,292.56 77.13,292.01 76.55,292.01 C75.97,292.02 77.43,293.82 79.79,296.01 C84.40,300.29 85.55,300.88 84.64,298.50 C84.13,297.19 84.37,297.19 86.44,298.55 C88.06,299.61 89.03,299.77 89.48,299.03 C89.85,298.44 89.64,298.07 89.02,298.23 C88.39,298.38 87.29,296.83 86.57,294.78 C85.39,291.43 85.42,291.15 86.88,291.95 C89.46,293.35 96.71,300.20 94.50,299.15 C92.71,298.29 92.50,298.55 92.50,301.61 C92.50,303.88 92.91,304.87 93.72,304.55 C94.39,304.30 95.24,304.59 95.62,305.20 C96.07,305.92 95.85,306.02 95.00,305.50 C94.13,304.96 93.93,305.08 94.41,305.85 C94.93,306.70 95.66,306.72 97.18,305.90 C98.83,305.02 99.09,305.07 98.47,306.15 C97.88,307.20 97.99,307.24 98.98,306.33 C99.67,305.68 100.75,305.33 101.37,305.55 C101.99,305.76 103.85,304.77 105.50,303.35 C107.45,301.68 107.84,301.00 106.61,301.41 C104.93,301.97 104.87,301.85 106.11,300.34 C107.33,298.83 107.29,298.70 105.75,299.28 C103.90,299.97 101.00,299.26 101.00,298.11 C101.00,297.22 110.67,290.00 111.86,290.00 C112.36,290.00 113.51,288.88 114.41,287.50 C115.31,286.12 116.63,285.00 117.33,285.00 C118.04,285.00 119.62,283.65 120.84,282.00 C122.06,280.35 123.79,279.00 124.68,279.00 C126.10,279.00 126.07,279.26 124.43,281.07 C123.03,282.62 122.93,283.07 124.03,282.82 C124.84,282.65 125.38,283.08 125.24,283.78 C125.06,284.68 125.74,284.56 127.52,283.39 C128.92,282.48 129.83,281.50 129.56,281.22 C129.28,280.94 128.26,281.34 127.30,282.11 C126.34,282.87 127.23,281.43 129.28,278.90 C131.32,276.37 133.00,273.62 133.00,272.80 C133.00,271.98 133.89,270.51 134.98,269.52 C136.06,268.54 136.73,267.37 136.46,266.93 C136.18,266.49 137.76,264.68 139.95,262.92 C142.15,261.16 143.72,259.35 143.44,258.91 C143.17,258.46 143.87,257.61 145.00,257.00 C146.13,256.39 146.81,255.49 146.50,255.00 C146.19,254.51 146.92,253.58 148.12,252.93 L 150.30 251.77 L 148.15 254.79 C145.76,258.14 145.40,259.49 147.17,258.39 C147.95,257.91 148.13,258.21 147.72,259.29 C147.27,260.46 147.53,260.73 148.67,260.30 C150.02,259.78 150.06,260.02 148.99,262.10 C147.96,264.08 148.41,263.89 151.58,261.00 C153.69,259.08 154.77,258.40 153.98,259.50 C150.73,264.02 136.67,280.12 134.88,281.37 C133.81,282.12 131.04,284.48 128.72,286.63 C118.35,296.20 99.73,310.00 97.17,310.00 C96.66,310.00 95.68,309.33 95.00,308.50 ZM 109.23 104.62 L 109.46 101.75 L 116.23 102.32 C123.60,102.93 123.83,102.72 122.00,97.00 C121.47,95.33 121.17,95.08 121.10,96.25 C121.04,97.21 120.21,98.04 119.25,98.10 C119.05,98.11 118.86,98.12 118.67,98.13 C112.08,98.50 110.14,98.61 109.15,97.70 C108.71,97.29 108.46,96.68 108.07,95.79 C107.39,94.25 106.38,93.27 105.82,93.61 C105.27,93.95 103.15,92.60 101.12,90.61 L 97.42 87.00 L 92.96 91.70 C88.59,96.30 89.84,96.00 95.20,91.16 L 97.90 88.73 L 102.34 93.11 C103.20,93.95 103.90,94.69 104.49,95.38 C104.31,95.37 104.12,95.43 103.94,95.54 C103.48,95.82 102.09,94.69 100.86,93.03 C99.63,91.36 98.32,90.00 97.95,90.00 C97.58,90.00 95.19,91.69 92.64,93.75 C88.09,97.43 88.01,97.60 88.16,103.00 L 88.26 106.38 C88.01,105.19 88.00,103.60 88.00,101.08 C88.00,97.41 88.34,93.96 88.75,93.42 C89.16,92.87 88.51,93.46 87.29,94.72 C84.38,97.74 77.35,98.19 75.37,95.49 C73.72,93.24 73.33,93.57 72.67,97.80 C72.39,99.62 71.56,101.84 70.83,102.74 C69.67,104.17 69.74,104.28 71.42,103.65 C72.47,103.26 75.96,102.66 79.17,102.32 C84.83,101.73 85.00,101.79 84.98,104.11 C84.96,105.75 86.92,108.39 91.23,112.53 L 97.50 118.56 L 103.25 113.03 C107.32,109.12 109.07,106.66 109.23,104.62 ZM 162.50 228.00 C162.16,227.45 162.28,227.00 162.77,227.00 C163.27,227.00 163.67,226.43 163.67,225.74 C163.67,225.05 165.07,220.85 166.79,216.40 C174.57,196.21 177.04,181.31 177.72,150.38 L 178.27 125.25 L 171.88 123.20 C168.37,122.06 161.45,119.90 156.50,118.39 C148.39,115.92 147.80,115.58 150.50,114.94 C152.15,114.55 153.05,114.18 152.50,114.11 C151.95,114.04 152.78,113.14 154.35,112.11 L 157.20 110.23 L 151.90 108.47 C148.99,107.50 145.44,106.74 144.03,106.78 C141.54,106.85 136.03,103.62 137.01,102.67 C137.28,102.41 141.32,103.45 146.00,104.99 C150.68,106.52 157.20,108.55 160.50,109.48 C163.80,110.42 171.34,112.84 177.25,114.85 L 188.00 118.50 L 188.00 121.81 C188.00,123.76 187.59,124.86 187.00,124.50 C186.45,124.16 186.00,122.83 186.00,121.54 C186.00,119.89 185.18,118.90 183.25,118.20 C181.74,117.65 179.79,116.91 178.92,116.56 C177.96,116.17 177.33,116.42 177.32,117.21 C177.32,117.92 176.99,119.51 176.59,120.75 C176.04,122.47 176.26,123.00 177.53,123.00 C179.05,123.00 179.15,125.35 178.77,150.25 C178.41,173.77 178.05,178.94 176.09,188.00 C174.01,197.67 164.39,229.00 163.50,229.00 C163.29,229.00 162.84,228.55 162.50,228.00 ZM 95.24 157.73 C94.13,154.85 92.62,151.05 91.90,149.28 C90.72,146.39 90.79,145.84 92.64,143.78 C95.25,140.89 96.03,138.67 95.02,137.03 C94.58,136.31 94.58,134.47 95.02,132.92 C95.56,131.04 95.45,129.97 94.66,129.67 C93.84,129.37 93.94,128.77 95.00,127.66 C97.25,125.28 98.85,127.00 99.19,132.18 C99.36,134.72 99.78,136.63 100.12,136.42 C100.47,136.21 100.75,137.12 100.75,138.44 C100.75,139.76 101.73,142.22 102.93,143.91 L 105.12 146.97 L 102.06 153.38 C100.38,156.90 99.00,160.26 99.00,160.83 C99.00,163.94 97.01,162.30 95.24,157.73 ZM 54.60 180.91 L 52.78 177.82 L 42.22 178.15 C34.87,178.39 31.55,178.14 31.28,177.34 C30.64,175.41 32.05,175.25 43.75,175.89 L 55.00 176.50 L 54.97 172.00 C54.94,167.78 54.58,167.20 49.29,162.66 L 43.64 157.81 L 34.57 158.16 C27.02,158.44 25.50,158.25 25.50,157.00 C25.50,155.75 27.05,155.56 34.96,155.87 L 44.42 156.24 L 50.71 161.80 C57.37,167.68 57.95,169.19 56.07,175.76 C54.54,181.09 56.36,182.00 68.57,182.00 C74.86,182.00 79.00,182.40 79.00,183.00 C79.00,183.61 74.57,184.00 67.72,184.00 L 56.43 184.00 ZM 49.59 245.37 C49.13,244.18 49.77,242.96 51.64,241.47 C54.12,239.49 54.41,238.53 54.93,230.69 C55.50,222.20 55.56,222.02 59.75,217.75 C63.71,213.72 64.00,213.05 63.98,207.96 C63.97,204.07 63.69,202.93 63.00,204.00 C62.47,204.82 62.02,206.51 62.02,207.73 C62.00,210.38 56.53,216.87 55.33,215.67 C54.88,215.21 55.88,213.60 57.57,212.09 C59.72,210.17 60.55,208.61 60.33,206.92 C59.84,203.21 65.19,198.00 69.49,198.00 C71.36,198.00 73.16,197.55 73.50,197.00 C73.84,196.45 75.25,196.00 76.63,196.00 C78.49,196.00 79.06,196.46 78.81,197.75 C78.56,199.08 77.30,199.57 73.52,199.81 C70.79,199.99 67.98,200.60 67.28,201.19 C66.52,201.82 66.00,204.54 66.00,207.91 C66.00,213.38 65.83,213.74 61.00,218.50 L 56.00 223.42 L 56.00 230.28 C56.00,234.05 55.44,238.11 54.77,239.32 C54.09,240.52 53.53,242.62 53.52,243.98 C53.50,246.91 50.57,247.94 49.59,245.37 ZM 87.21 274.51 C86.28,272.39 85.39,270.33 84.62,268.50 L 79.98 257.50 L 79.99 231.25 L 80.00 205.00 L 72.00 205.00 L 72.00 209.98 C72.00,214.58 71.63,215.34 67.00,220.20 L 62.00 225.44 L 62.00 234.52 C62.00,240.31 61.56,244.04 60.78,244.82 C60.12,245.48 59.55,247.48 59.53,249.25 C59.51,251.51 58.98,252.57 57.75,252.81 C55.24,253.29 55.55,250.56 58.50,246.21 C60.71,242.96 61.00,241.49 61.00,233.50 L 61.00 224.47 L 65.50 219.77 C69.54,215.55 70.00,214.59 70.02,210.29 C70.04,203.76 70.91,202.69 75.82,203.15 L 79.87 203.54 L 80.51 196.52 C80.56,196.02 80.60,195.35 80.64,194.54 L 80.65 200.89 L 80.80 259.29 L 85.02 269.39 C85.67,270.94 86.42,272.69 87.21,274.51 ZM 94.03 38.53 C93.47,37.86 93.35,36.98 93.76,36.57 C94.17,36.17 93.88,35.98 93.12,36.17 C92.37,36.35 91.52,35.87 91.25,35.11 C90.94,34.27 91.18,33.99 91.85,34.41 C92.46,34.79 92.22,33.80 91.32,32.23 C89.87,29.70 89.84,28.99 91.08,26.18 C91.85,24.43 92.83,23.00 93.24,23.00 C93.29,23.00 93.34,22.99 93.38,22.98 C92.08,24.80 91.00,26.74 91.00,27.66 C91.00,28.32 92.01,29.00 93.25,29.18 C94.86,29.41 95.59,30.28 95.82,32.24 C96.08,34.53 95.83,34.88 94.32,34.32 C92.62,33.70 92.62,33.80 94.40,35.83 C95.45,37.02 96.88,38.00 97.57,38.00 C99.40,38.00 105.00,30.57 105.00,28.14 C105.00,25.73 99.43,19.00 97.43,19.00 C96.75,19.00 95.31,20.45 93.96,22.20 C93.99,22.08 94.00,21.96 94.00,21.83 C94.00,21.18 92.88,21.71 91.50,23.00 C90.12,24.29 89.00,24.99 89.00,24.55 C89.00,24.11 88.31,24.33 87.46,25.04 C86.31,25.99 85.63,26.03 84.78,25.18 C83.35,23.75 85.63,19.00 87.73,19.00 C88.49,19.00 88.84,18.55 88.50,18.00 C88.16,17.45 88.61,17.00 89.50,17.00 C90.39,17.00 90.89,16.62 90.60,16.17 C90.32,15.71 90.76,15.33 91.59,15.33 C92.41,15.33 92.86,15.91 92.59,16.62 C91.86,18.52 93.78,17.50 95.39,15.45 C94.60,16.75 94.01,17.97 94.01,18.37 C94.00,18.85 94.63,18.72 95.40,18.08 C96.24,17.38 97.93,17.19 99.58,17.61 L 101.15 18.00 C101.07,18.95 100.23,19.24 98.75,18.41 C98.06,18.03 99.35,19.69 101.62,22.11 C105.25,25.98 105.64,26.85 104.92,29.41 C104.46,31.00 102.61,33.88 100.79,35.79 C98.98,37.71 98.25,38.88 99.16,38.39 C100.08,37.90 102.70,35.36 105.00,32.75 C107.29,30.14 109.68,28.00 110.30,28.00 C110.93,28.00 108.82,30.64 105.62,33.88 C99.78,39.78 96.24,41.20 94.03,38.53 ZM 62.67 177.33 C62.30,176.97 62.00,173.65 62.00,169.95 L 62.00 163.24 L 56.50 159.00 C51.31,154.99 51.00,154.51 51.00,150.35 C51.00,147.74 50.49,145.74 49.75,145.46 C46.87,144.36 34.38,143.32 32.95,144.06 C30.85,145.14 28.56,143.59 29.32,141.60 C29.96,139.94 33.00,139.34 33.00,140.87 C33.00,141.35 36.55,142.05 40.89,142.43 C45.23,142.81 49.53,143.67 50.46,144.34 C51.38,145.02 52.40,147.57 52.73,150.02 C53.15,153.16 54.08,155.06 55.89,156.48 C60.14,159.82 61.97,161.21 62.71,163.04 C63.27,164.41 63.22,166.04 63.12,168.94 C63.12,169.07 63.11,169.20 63.11,169.34 L 62.89 176.00 L 71.01 176.00 C76.16,176.00 78.89,176.36 78.50,177.00 C77.82,178.10 63.73,178.40 62.67,177.33 ZM 16.68 162.00 C16.23,154.02 16.00,142.16 16.18,135.63 L 16.50 123.76 L 25.00 120.83 C34.88,117.43 48.22,113.89 48.85,114.51 C49.49,115.15 44.89,116.74 32.55,120.16 C26.47,121.84 20.72,123.63 19.77,124.14 C18.20,124.96 18.01,127.56 17.77,150.78 L 17.50 176.50 ZM 135.38 251.55 C135.07,250.75 135.11,249.64 135.45,249.08 C135.80,248.52 135.39,246.72 134.54,245.08 C133.50,243.06 133.00,239.27 133.00,233.33 L 133.00 224.57 L 128.36 219.86 C124.34,215.78 123.66,214.47 123.23,210.05 L 122.74 204.96 L 119.37 205.59 C116.64,206.10 116.00,205.91 116.00,204.55 C116.00,203.21 116.82,202.94 120.25,203.19 L 124.50 203.50 L 124.80 209.26 C125.09,214.73 125.35,215.25 130.11,219.70 L 135.12 224.39 L 134.89 234.06 C134.67,242.69 134.88,244.03 136.82,246.50 C138.02,248.02 139.00,250.11 139.00,251.13 C139.00,253.33 136.19,253.65 135.38,251.55 ZM 67.67 171.33 C67.30,170.97 67.00,168.15 67.00,165.08 C67.00,159.62 66.89,159.40 62.00,155.19 C57.16,151.02 57.00,150.72 57.00,145.52 C57.00,141.35 56.47,139.52 54.65,137.33 C51.98,134.12 52.20,132.00 55.20,132.00 C56.83,132.00 57.14,132.50 56.76,134.49 C56.49,135.91 56.87,137.47 57.64,138.12 C58.50,138.83 59.00,141.36 59.00,144.97 C59.00,150.60 59.07,150.75 64.00,154.90 C68.87,159.01 69.00,159.26 69.00,164.56 L 69.00 170.00 L 74.00 170.00 C76.75,170.00 79.00,170.45 79.00,171.00 C79.00,172.10 68.74,172.40 67.67,171.33 ZM 116.00 177.04 C116.00,176.41 119.13,176.00 124.00,176.00 L 132.00 176.00 L 132.00 162.47 L 137.50 158.18 C142.66,154.15 143.00,153.62 143.00,149.54 C143.00,145.58 143.28,145.10 146.10,144.12 C147.80,143.52 152.19,142.74 155.85,142.38 C159.51,142.02 163.08,141.27 163.79,140.71 C164.68,140.01 165.42,140.02 166.16,140.76 C168.14,142.74 166.19,143.56 158.95,143.78 C154.99,143.89 150.00,144.46 147.87,145.03 C144.13,146.04 144.00,146.22 144.00,150.42 C144.00,154.51 143.68,155.00 138.54,158.88 L 133.09 163.00 L 132.79 170.25 L 132.50 177.50 L 124.25 177.79 C119.02,177.97 116.00,177.70 116.00,177.04 ZM 145.70 234.36 C145.35,234.01 145.33,231.17 145.65,228.04 L 146.25 222.35 L 140.12 217.03 C135.08,212.64 134.00,211.15 134.00,208.59 C134.00,206.64 133.05,204.45 131.46,202.74 C129.20,200.30 128.22,200.00 122.46,200.00 C116.56,200.00 116.00,199.82 116.00,197.89 C116.00,196.26 116.40,195.96 117.75,196.54 C118.71,196.96 121.83,197.59 124.67,197.94 C128.41,198.41 130.43,199.27 131.96,201.04 C134.41,203.90 136.22,207.84 135.55,208.91 C135.30,209.32 137.77,212.31 141.05,215.55 C146.45,220.89 147.00,221.83 147.00,225.66 C147.00,227.98 147.45,230.16 148.00,230.50 C149.48,231.41 149.21,235.00 147.67,235.00 C146.93,235.00 146.05,234.71 145.70,234.36 ZM 8.18 124.36 L 8.00 118.21 L 21.25 114.10 C28.54,111.84 36.75,109.25 39.50,108.34 C53.89,103.57 59.10,102.20 58.75,103.25 C58.54,103.87 56.15,104.89 53.44,105.51 C50.72,106.13 42.88,108.53 36.00,110.86 C29.12,113.18 21.57,115.53 19.22,116.08 C16.87,116.64 15.18,117.48 15.47,117.95 C15.76,118.43 15.03,118.56 13.85,118.25 C12.37,117.86 11.91,118.05 12.40,118.84 C12.80,119.48 13.77,120.00 14.56,120.00 C15.35,120.00 16.00,120.42 16.00,120.93 C16.00,121.50 14.76,121.50 12.76,120.93 C10.97,120.42 9.42,120.00 9.31,120.00 C9.20,120.00 8.94,122.36 8.74,125.25 L 8.37 130.50 ZM 116.22 183.44 C116.53,183.14 121.44,182.65 127.13,182.37 C136.95,181.88 137.61,181.71 139.99,179.00 C142.38,176.29 142.98,176.14 152.75,175.73 C161.72,175.36 163.00,175.51 163.00,176.93 C163.00,178.35 161.69,178.50 152.65,178.17 L 142.29 177.78 L 140.08 180.89 L 137.86 184.00 L 126.77 184.00 C120.66,184.00 115.92,183.75 116.22,183.44 ZM 116.00 171.05 C116.00,170.44 118.33,170.00 121.50,170.00 L 127.00 170.00 L 127.00 164.00 C127.00,160.70 127.34,157.99 127.75,157.99 C128.16,157.98 130.46,156.16 132.86,153.93 C137.07,150.01 137.19,149.75 136.53,145.38 C136.04,142.07 136.27,140.23 137.42,138.49 C138.28,137.18 138.71,135.41 138.38,134.56 C137.66,132.67 140.68,131.28 142.21,132.81 C142.97,133.57 142.52,134.78 140.64,137.02 C138.48,139.58 138.00,141.17 138.00,145.67 C138.00,151.03 137.85,151.33 133.05,155.65 C128.34,159.88 128.08,160.37 127.80,165.80 L 127.50 171.50 L 121.75 171.80 C118.21,171.98 116.00,171.70 116.00,171.05 ZM 138.96 171.69 C138.48,166.96 138.56,166.81 143.91,161.69 L 149.35 156.50 L 157.92 155.94 C162.64,155.63 167.33,155.00 168.34,154.55 C169.88,153.85 170.12,154.10 169.81,156.11 C169.58,157.65 168.93,158.35 167.98,158.08 C167.16,157.85 162.92,157.77 158.55,157.91 C150.67,158.17 150.56,158.21 145.55,162.70 C141.18,166.62 140.43,167.86 139.97,171.87 L 139.44 176.50 ZM 132.25 189.25 C110.80,188.85 110.43,187.00 131.80,187.00 C142.76,187.00 147.97,186.63 148.80,185.80 C149.69,184.91 150.29,184.89 151.13,185.73 C152.53,187.13 151.54,190.08 149.78,189.78 C149.08,189.65 141.19,189.42 132.25,189.25 ZM 160.51 248.58 C162.19,245.79 162.19,245.61 160.44,244.33 C159.44,243.60 158.20,243.00 157.69,243.00 C157.17,243.00 157.37,242.24 158.13,241.31 C158.91,240.34 158.99,239.92 158.32,240.32 C157.67,240.71 156.86,240.58 156.51,240.02 C156.16,239.46 156.39,239.00 157.00,239.00 C157.61,239.00 157.84,238.55 157.50,238.00 C157.16,237.45 157.39,237.00 158.00,237.00 C158.61,237.00 158.84,236.55 158.50,236.00 C158.16,235.45 158.39,235.00 159.00,235.00 C159.61,235.00 159.84,234.55 159.50,234.00 C159.16,233.45 159.39,233.00 160.00,233.00 C160.61,233.00 160.84,232.55 160.50,232.00 C160.16,231.45 160.36,231.00 160.94,231.00 C162.26,231.00 162.30,232.58 161.02,234.96 C160.29,236.32 160.47,237.14 161.71,238.14 C163.15,239.31 163.26,239.29 162.50,238.00 C161.75,236.73 161.86,236.70 163.23,237.81 C164.63,238.94 165.20,238.61 167.42,235.33 C168.84,233.24 170.00,230.99 170.00,230.33 C170.00,229.66 170.45,228.84 171.00,228.50 C173.27,227.10 164.71,244.41 160.86,249.00 L 158.76 251.50 ZM 42.72 189.39 C41.47,188.13 41.94,186.24 43.67,185.57 C44.58,185.22 45.80,185.40 46.37,185.97 C46.99,186.59 53.67,187.00 63.20,187.00 C73.07,187.00 79.00,187.38 79.00,188.00 C79.00,188.62 73.07,189.01 63.25,189.01 C54.59,189.02 46.59,189.27 45.47,189.57 C44.36,189.87 43.12,189.79 42.72,189.39 ZM 65.05 106.95 C65.98,106.02 67.34,105.05 68.05,104.82 C68.77,104.58 69.46,102.98 69.57,101.26 C69.69,99.55 70.12,97.61 70.53,96.96 C70.93,96.30 71.61,94.21 72.04,92.31 C72.80,88.96 72.76,88.90 70.93,90.57 C69.29,92.05 60.00,108.11 60.00,109.46 C60.00,110.33 63.32,108.68 65.05,106.95 ZM 141.87 246.75 C141.61,246.24 140.98,241.23 140.07,232.28 L 139.13 223.07 L 134.07 218.16 C129.26,213.50 129.00,212.98 129.00,208.07 C129.00,204.86 129.38,203.12 130.00,203.50 C130.55,203.84 131.00,206.25 131.00,208.85 C131.00,213.20 131.40,213.97 136.00,218.50 L 141.00 223.42 L 141.00 230.91 C141.00,237.63 141.27,238.67 143.63,241.14 C146.37,243.99 146.31,247.00 143.53,247.00 C142.69,247.00 141.94,246.89 141.87,246.75 ZM 94.00 112.50 C95.00,113.57 96.14,114.48 96.87,114.84 C95.76,114.38 93.80,113.00 92.00,111.38 C89.96,109.54 88.96,108.60 88.47,107.19 L 88.91 103.58 C89.23,100.87 90.06,98.47 90.75,98.24 C91.56,97.98 91.78,98.41 91.37,99.48 C90.93,100.61 91.39,101.29 92.87,101.68 C94.25,102.04 94.97,102.98 94.90,104.37 C94.77,107.08 93.23,111.97 93.10,110.08 C93.04,109.30 92.70,108.97 92.33,109.34 C91.96,109.71 92.71,111.13 94.00,112.50 ZM 40.52 209.04 C40.16,208.45 41.28,206.17 43.01,203.98 C46.07,200.12 46.35,200.00 52.28,200.00 C57.55,200.00 58.78,199.63 61.20,197.31 C62.74,195.84 64.00,195.08 64.00,195.63 C64.00,196.18 62.70,197.87 61.11,199.39 C58.59,201.81 57.55,202.12 52.80,201.90 C46.32,201.60 45.28,202.13 44.22,206.23 C43.37,209.53 41.64,210.84 40.52,209.04 ZM 99.88 105.78 C99.78,103.90 99.63,104.03 99.00,106.50 C98.24,109.50 98.24,109.50 98.12,105.78 C98.03,103.09 98.36,102.20 99.31,102.57 C100.04,102.84 101.46,102.15 102.47,101.04 C103.48,99.92 104.61,99.00 104.98,99.00 C106.09,99.00 105.45,106.95 104.24,108.16 C102.60,109.80 100.02,108.39 99.88,105.78 ZM 106.67 28.01 C107.59,27.03 107.30,26.16 105.42,24.14 C102.13,20.58 102.35,19.07 105.72,22.08 C107.22,23.41 107.83,23.70 107.08,22.73 C106.33,21.75 105.99,20.67 106.33,20.33 C106.67,19.99 105.24,17.64 103.14,15.11 C98.62,9.63 96.62,6.21 100.44,10.50 C107.70,18.63 111.00,23.02 111.00,24.52 C111.00,25.21 109.76,26.56 108.25,27.51 C106.74,28.47 106.03,28.70 106.67,28.01 ZM 119.58 292.87 C119.94,292.29 119.70,291.30 119.05,290.66 C118.16,289.78 118.03,289.90 118.52,291.17 C119.12,292.75 118.79,292.84 115.13,292.08 C114.93,292.03 115.55,290.80 116.51,289.34 L 118.25 286.68 L 115.38 288.81 C113.79,289.99 111.38,291.89 110.00,293.04 L 107.50 295.13 L 110.00 293.90 C112.36,292.74 112.42,292.77 111.00,294.53 C110.18,295.55 110.02,296.08 110.65,295.70 C111.28,295.32 112.06,295.72 112.39,296.58 C112.91,297.94 113.38,297.86 115.97,296.02 C117.60,294.86 119.23,293.44 119.58,292.87 ZM 46.36 233.49 C46.04,232.66 46.25,231.41 46.82,230.72 C47.39,230.03 48.01,227.50 48.18,225.09 C48.43,221.72 49.07,220.37 51.00,219.15 L 53.50 217.57 L 51.59 219.79 C50.08,221.55 49.73,223.35 49.90,228.50 C50.07,233.85 49.83,235.00 48.52,235.00 C47.65,235.00 46.68,234.32 46.36,233.49 ZM 31.09 226.57 C26.70,216.02 27.31,214.92 32.03,224.88 L 32.23 225.30 C35.40,232.00 36.13,233.54 35.75,233.89 C35.64,234.00 35.43,234.00 35.15,234.00 L 35.09 234.00 C34.59,234.00 32.79,230.66 31.09,226.57 ZM 101.17 33.35 C98.59,35.68 98.00,35.43 98.00,32.00 C98.00,29.47 98.39,29.00 100.50,29.00 C103.46,29.00 103.77,31.00 101.17,33.35 ZM 96.63 65.88 C95.95,62.48 96.47,61.00 98.36,61.00 C99.19,61.00 99.46,62.16 99.19,64.51 C98.65,69.10 97.40,69.77 96.63,65.88 ZM 40.66 245.51 C39.28,243.04 38.47,240.83 38.86,240.58 C39.26,240.34 40.82,242.36 42.35,245.07 C43.87,247.78 44.68,250.00 44.14,250.00 C43.61,250.00 42.04,247.98 40.66,245.51 ZM 96.88 76.31 C96.29,72.27 96.68,70.50 98.25,70.19 C99.73,69.91 99.86,70.24 99.07,72.32 C98.55,73.68 98.35,75.02 98.63,75.30 C98.91,75.57 98.65,76.10 98.07,76.46 C97.48,76.82 96.95,76.75 96.88,76.31 ZM 132.36 282.20 C132.60,281.82 132.10,280.86 131.25,280.08 C129.93,278.85 129.79,278.85 130.24,280.08 C130.52,280.86 129.57,282.81 128.13,284.42 L 125.50 287.34 L 128.72 285.12 C130.49,283.90 132.13,282.59 132.36,282.20 ZM 97.00 55.58 C97.00,53.61 97.45,52.00 98.00,52.00 C98.55,52.00 99.00,53.12 99.00,54.50 C99.00,55.88 99.03,57.33 99.07,57.72 C99.12,58.12 98.67,58.61 98.07,58.81 C97.44,59.02 97.00,57.69 97.00,55.58 ZM 91.49 303.01 C91.85,302.43 91.36,302.26 90.30,302.59 C88.69,303.10 88.71,302.99 90.44,301.58 C91.51,300.71 91.87,300.00 91.25,300.00 C90.63,300.00 89.82,300.49 89.45,301.09 C88.96,301.87 88.47,301.87 87.69,301.09 C87.09,300.49 86.13,300.01 85.55,300.02 C84.44,300.05 89.01,303.94 90.19,303.98 C90.57,303.99 91.16,303.56 91.49,303.01 ZM 98.55 146.27 C97.58,143.74 95.66,146.37 96.52,149.06 C97.17,151.10 97.33,151.15 98.20,149.60 C98.73,148.65 98.89,147.16 98.55,146.27 ZM 86.90 30.75 L 84.66 27.50 L 87.83 30.44 C91.25,33.60 91.50,34.00 90.07,34.00 C89.56,34.00 88.13,32.54 86.90,30.75 ZM 96.82 46.50 C96.18,43.50 96.49,42.16 97.58,43.24 C97.89,43.56 98.00,45.10 97.81,46.66 L 97.47 49.50 ZM 97.43 115.00 C98.07,114.92 100.59,112.88 103.11,110.40 C107.50,106.07 107.75,105.54 107.26,101.65 C107.19,101.09 107.10,100.56 107.01,100.07 C107.14,100.65 107.25,101.28 107.33,101.98 C107.85,106.26 107.67,106.66 103.42,110.73 C100.97,113.08 98.30,115.00 97.49,115.00 C97.47,115.00 97.45,115.00 97.43,115.00 ZM 101.00 118.50 C102.87,116.57 104.17,115.00 103.89,115.00 C103.62,115.00 101.87,116.57 100.00,118.50 C98.13,120.43 96.83,122.00 97.11,122.00 C97.38,122.00 99.13,120.43 101.00,118.50 ZM 105.93 297.58 C106.90,296.41 106.75,296.25 105.06,296.70 C103.93,296.99 103.00,297.63 103.00,298.12 C103.00,299.47 104.61,299.17 105.93,297.58 ZM 133.67 277.60 C133.67,276.79 133.06,276.42 132.25,276.73 C131.08,277.18 131.07,277.43 132.17,278.12 C132.90,278.59 133.54,278.98 133.58,278.98 C133.63,278.99 133.67,278.37 133.67,277.60 ZM 163.92 242.00 C165.04,239.64 165.02,239.61 163.56,241.44 C162.70,242.51 162.00,243.82 162.00,244.36 C162.00,245.63 162.46,245.06 163.92,242.00 ZM 162.00 177.00 C162.00,176.45 161.55,176.00 161.00,176.00 C160.45,176.00 160.00,176.45 160.00,177.00 C160.00,177.55 160.45,178.00 161.00,178.00 C161.55,178.00 162.00,177.55 162.00,177.00 ZM 80.52 150.73 C80.23,142.66 79.71,140.91 78.25,138.00 L 80.50 142.50 ZM 97.00 38.56 C97.00,38.32 96.55,37.84 96.00,37.50 C95.45,37.16 95.00,37.36 95.00,37.94 C95.00,38.52 95.45,39.00 96.00,39.00 C96.55,39.00 97.00,38.80 97.00,38.56 ZM 96.78 13.31 L 97.71 11.78 L 97.75 11.84 Z" fill="rgb(59,98,126)"/>
<path d="M 93.23 287.75 C91.71,284.58 89.36,279.41 87.21,274.51 L 87.21 274.51 C86.41,272.69 85.66,270.94 85.02,269.39 L 80.80 259.29 L 80.65 200.89 L 80.64 194.54 C80.89,189.10 80.98,177.24 80.82,166.00 C80.73,159.20 80.65,154.33 80.52,150.73 L 80.50 142.50 L 78.25 138.00 C76.82,135.14 76.40,133.37 77.10,133.13 C79.54,132.32 84.83,126.82 85.42,124.48 C85.79,122.99 85.40,120.73 84.45,118.90 C81.39,112.98 85.50,113.78 89.55,119.89 C91.83,123.34 92.21,125.02 92.34,132.36 C92.48,139.75 92.21,141.23 90.23,143.91 L 87.96 146.98 L 90.59 152.17 C95.97,162.79 95.92,162.30 96.13,205.78 C96.23,228.17 96.17,246.95 95.98,247.50 C95.78,248.05 95.99,251.84 96.43,255.91 C98.22,272.44 99.11,258.77 99.30,211.74 L 99.50 163.50 L 107.13 147.89 L 105.06 143.63 C103.54,140.48 103.00,137.40 103.00,131.85 C103.00,124.72 103.19,124.08 106.63,119.66 C111.40,113.55 113.31,113.44 111.17,119.40 C109.90,122.94 109.82,124.31 110.77,126.40 C111.76,128.56 116.26,132.21 119.22,133.25 C119.62,133.39 118.72,135.98 117.22,139.00 L 114.50 144.50 L 114.50 261.50 L 109.25 273.79 C106.07,281.21 103.61,286.68 101.79,290.33 C102.65,288.47 103.33,286.56 103.47,285.33 C103.84,281.94 102.48,282.48 100.59,286.46 C98.34,291.19 97.33,291.55 95.61,288.21 C94.80,286.64 93.36,284.71 92.41,283.93 C90.80,282.59 90.79,282.68 92.23,285.50 C92.82,286.65 93.68,288.46 94.43,290.16 C94.04,289.40 93.64,288.59 93.23,287.75 ZM 94.00 112.50 C92.71,111.13 91.96,109.71 92.33,109.34 C92.70,108.97 93.04,109.30 93.10,110.08 C93.23,111.97 94.77,107.08 94.90,104.37 C94.97,102.98 94.25,102.04 92.87,101.68 C91.39,101.29 90.93,100.61 91.37,99.48 C91.78,98.41 91.56,97.98 90.75,98.24 C90.06,98.47 89.23,100.87 88.91,103.58 L 88.47 107.19 C88.38,106.94 88.31,106.67 88.26,106.38 L 88.16 103.00 C88.01,97.60 88.09,97.43 92.64,93.75 C95.19,91.69 97.58,90.00 97.95,90.00 C98.32,90.00 99.63,91.36 100.86,93.03 C102.09,94.69 103.48,95.82 103.94,95.54 C104.12,95.43 104.31,95.37 104.49,95.38 C105.89,97.02 106.60,98.35 107.01,100.07 C107.10,100.56 107.19,101.09 107.26,101.65 C107.75,105.54 107.50,106.07 103.11,110.40 C100.59,112.88 98.07,114.92 97.43,115.00 C97.28,114.99 97.10,114.93 96.87,114.84 C96.14,114.48 95.00,113.57 94.00,112.50 ZM 93.50 23.00 C92.65,24.65 92.12,26.00 92.33,26.00 C92.53,26.00 94.12,24.65 95.84,23.00 C98.55,20.42 98.71,20.00 97.02,20.00 C96.30,20.00 95.49,20.45 94.76,21.21 C95.85,19.94 96.88,19.00 97.43,19.00 C99.43,19.00 105.00,25.73 105.00,28.14 C105.00,30.57 99.40,38.00 97.57,38.00 C96.88,38.00 95.45,37.02 94.40,35.83 C92.62,33.80 92.62,33.70 94.32,34.32 C95.83,34.88 96.08,34.53 95.82,32.24 C95.59,30.28 94.86,29.41 93.25,29.18 C92.01,29.00 91.00,28.32 91.00,27.66 C91.00,26.74 92.08,24.80 93.38,22.98 C93.44,22.96 93.50,22.93 93.55,22.90 C93.54,22.93 93.52,22.96 93.50,23.00 ZM 99.88 105.78 C100.02,108.39 102.60,109.80 104.24,108.16 C105.45,106.95 106.09,99.00 104.98,99.00 C104.61,99.00 103.48,99.92 102.47,101.04 C101.46,102.15 100.04,102.84 99.31,102.57 C98.36,102.20 98.03,103.09 98.12,105.78 C98.24,109.50 98.24,109.50 99.00,106.50 C99.63,104.03 99.78,103.90 99.88,105.78 ZM 104.00 279.44 C104.00,279.75 104.64,280.00 105.42,280.00 C106.74,280.00 109.69,273.50 109.19,271.70 C109.06,271.25 109.65,270.21 110.49,269.37 C111.33,268.53 111.73,267.37 111.38,266.81 C111.03,266.24 111.30,265.43 111.98,265.01 C112.70,264.56 112.82,264.01 112.26,263.66 C111.73,263.33 110.82,264.07 110.23,265.28 C107.66,270.60 104.00,278.92 104.00,279.44 ZM 101.17 33.35 C103.77,31.00 103.46,29.00 100.50,29.00 C98.39,29.00 98.00,29.47 98.00,32.00 C98.00,35.43 98.59,35.68 101.17,33.35 ZM 90.18 279.72 C91.95,281.85 91.89,281.23 89.82,275.75 C87.83,270.53 86.06,267.60 85.33,268.33 C84.85,268.82 88.76,278.00 90.18,279.72 ZM 78.45 137.91 C79.97,140.84 83.00,142.20 83.00,139.95 C83.00,138.60 78.04,133.63 77.37,134.30 C77.08,134.58 77.57,136.21 78.45,137.91 ZM 113.50 141.01 C113.94,141.71 114.86,141.32 116.09,139.90 C118.14,137.54 118.62,135.00 117.02,135.00 C115.53,135.00 112.74,139.77 113.50,141.01 ZM 82.69 129.75 C81.29,131.29 81.07,132.00 82.00,132.00 C84.31,132.00 87.00,128.80 86.97,126.10 C86.94,123.66 86.87,123.62 85.83,125.50 C85.22,126.60 83.81,128.51 82.69,129.75 ZM 98.03 295.99 C98.47,295.87 99.16,295.05 99.89,293.88 C99.04,295.31 98.45,296.00 98.09,296.00 C98.07,296.00 98.05,296.00 98.03,295.99 ZM 93.95 22.22 C93.96,22.22 93.96,22.21 93.96,22.20 C93.98,22.17 94.01,22.14 94.03,22.11 C94.01,22.15 93.98,22.19 93.95,22.22 Z" fill="rgb(177,189,197)"/>
<path d="M 0.00 156.00 L 0.00 0.00 L 98.50 0.00 L 197.00 0.00 L 197.00 156.00 L 197.00 312.00 L 147.81 312.00 L 98.63 312.00 L 105.54 307.36 C139.53,284.57 163.39,256.33 175.82,224.18 C186.67,196.10 190.36,173.27 189.82,137.51 L 189.50 116.52 L 184.50 114.82 C181.75,113.88 172.52,111.03 164.00,108.47 C132.15,98.93 135.41,100.47 130.68,92.78 C128.38,89.05 125.73,85.75 124.80,85.45 C122.26,84.62 117.00,87.71 117.00,90.03 C117.00,93.31 112.33,92.53 108.40,88.60 L 105.00 85.20 L 105.00 61.93 L 105.00 38.66 L 110.00 32.91 C112.75,29.74 115.00,26.55 115.00,25.80 C115.00,24.60 112.58,21.36 101.50,7.70 C99.85,5.66 98.05,4.02 97.50,4.05 C96.23,4.12 82.79,21.30 81.61,24.38 C80.87,26.31 81.48,27.62 85.36,32.38 L 90.00 38.08 L 90.00 62.10 L 90.00 86.11 L 86.78 89.06 C82.84,92.65 80.32,92.80 78.83,89.53 C77.68,87.01 71.88,84.34 70.03,85.48 C69.48,85.82 67.22,89.15 65.01,92.87 L 60.98 99.65 L 48.74 103.51 C42.01,105.63 29.75,109.43 21.50,111.96 L 6.50 116.55 L 6.59 145.03 C6.69,175.90 7.15,180.03 13.19,203.50 C18.70,224.90 27.98,244.42 40.79,261.60 C52.66,277.52 75.19,298.10 92.50,308.86 L 97.50 311.96 L 48.75 311.98 L 0.00 312.00 L 0.00 156.00 ZM 95.34 292.25 C94.48,290.19 93.08,287.15 92.23,285.50 C90.79,282.68 90.80,282.59 92.41,283.93 C93.36,284.71 94.80,286.64 95.61,288.21 C97.33,291.55 98.34,291.19 100.59,286.46 C102.48,282.48 103.84,281.94 103.47,285.33 C103.12,288.47 99.21,296.00 97.93,296.00 C97.36,296.00 96.20,294.31 95.34,292.25 ZM 90.18 279.72 C88.76,278.00 84.85,268.82 85.33,268.33 C86.06,267.60 87.83,270.53 89.82,275.75 C91.89,281.23 91.95,281.85 90.18,279.72 ZM 104.00 279.44 C104.00,278.92 107.66,270.60 110.23,265.28 C110.82,264.07 111.73,263.33 112.26,263.66 C112.82,264.01 112.70,264.56 111.98,265.01 C111.30,265.43 111.03,266.24 111.38,266.81 C111.73,267.37 111.33,268.53 110.49,269.37 C109.65,270.21 109.06,271.25 109.19,271.70 C109.69,273.50 106.74,280.00 105.42,280.00 C104.64,280.00 104.00,279.75 104.00,279.44 ZM 113.50 141.01 C112.74,139.77 115.53,135.00 117.02,135.00 C118.62,135.00 118.14,137.54 116.09,139.90 C114.86,141.32 113.94,141.71 113.50,141.01 ZM 78.45 137.91 C77.57,136.21 77.08,134.58 77.37,134.30 C78.04,133.63 83.00,138.60 83.00,139.95 C83.00,142.20 79.97,140.84 78.45,137.91 ZM 82.69 129.75 C83.81,128.51 85.22,126.60 85.83,125.50 C86.87,123.62 86.94,123.66 86.97,126.10 C87.00,128.80 84.31,132.00 82.00,132.00 C81.07,132.00 81.29,131.29 82.69,129.75 ZM 93.50 23.00 C94.43,21.21 95.84,20.00 97.02,20.00 C98.71,20.00 98.55,20.42 95.84,23.00 C94.12,24.65 92.53,26.00 92.33,26.00 C92.12,26.00 92.65,24.65 93.50,23.00 ZM 94.01 18.37 C94.01,17.89 94.85,16.23 95.88,14.67 L 97.75 11.84 L 100.05 15.07 L 102.35 18.31 L 99.58 17.61 C97.93,17.19 96.24,17.38 95.40,18.08 C94.63,18.72 94.00,18.85 94.01,18.37 Z" fill="rgb(254,254,254)"/>
</g>
</svg>